<svg width="20" height="22" viewBox="0 0 20 22" fill="none" xmlns="http://www.w3.org/2000/svg">
<rect x="2.22229" y="3.29688" width="15.5556" height="15.5556" fill="black"/>
<rect y="18.1113" width="20" height="2.96296" rx="0.740763" fill="black"/>
<path d="M0 4.55327C0 4.24338 0.192891 3.96625 0.483485 3.85862L9.74272 0.429272C9.90873 0.367788 10.0913 0.367788 10.2573 0.429272L19.5165 3.85862C19.8071 3.96625 20 4.24338 20 4.55327V6.25989C20 6.669 19.6683 7.00065 19.2592 7.00065H0.740763C0.331651 7.00065 0 6.669 0 6.25989V4.55327Z" fill="black"/>
<path d="M6.83752 16.7443V7.92766H8.72331V16.7443H6.83752ZM7.71919 13.3279V11.8829H12.7765V13.3279H7.71919ZM7.71919 9.37261V7.92766H13.0582V9.37261H7.71919Z" fill="white"/>
<path d="M10.4133 5.57617H11.6239V10.7614H10.4133V5.57617Z" fill="white"/>
<path d="M10.4133 11.9579H11.6239V14.75H10.4133V11.9579Z" fill="white"/>
</svg>
