<svg width="138" height="126" viewBox="0 0 138 126" fill="none" xmlns="http://www.w3.org/2000/svg">
<path d="M64.5304 95.5799C64.5304 96.8419 64.9715 97.9273 65.8537 98.8359C66.736 99.7446 67.8073 100.199 69.0677 100.199C70.328 100.199 71.3993 99.7446 72.2816 98.8359C73.1638 97.9273 73.6049 96.8419 73.6049 95.5799C73.6049 94.2927 73.1638 93.1947 72.2816 92.2861C71.3993 91.3774 70.328 90.9231 69.0677 90.9231C67.8073 90.9231 66.736 91.3774 65.8537 92.2861C64.9715 93.1947 64.5304 94.2927 64.5304 95.5799Z" fill="#EC4747"/>
<path d="M72.8487 40.7578H72.4706L65.2866 44.1653V83.5403H65.6647L72.8487 80.1328V40.7578Z" fill="#EC4747"/>
<path fill-rule="evenodd" clip-rule="evenodd" d="M134.772 90.213L89.6344 11.929C80.4636 -3.97631 57.5364 -3.97636 48.3656 11.929L3.22771 90.213C-5.94315 106.118 5.52039 126 23.8621 126H114.138C132.48 126 143.943 106.118 134.772 90.213ZM55.2437 15.9053C61.3576 5.30177 76.6424 5.30178 82.7563 15.9053L127.894 94.1894C134.008 104.793 126.366 118.047 114.138 118.047H23.8621C11.6343 118.047 3.99195 104.793 10.1059 94.1894L55.2437 15.9053Z" fill="#EC4747"/>
</svg>
