<svg width="160" height="160" viewBox="0 0 160 160" fill="none" xmlns="http://www.w3.org/2000/svg">
<path d="M120.038 56.3473L115.343 51.6527L66.6521 100.344L45.3473 79.0393L40.6527 83.7339L66.6521 109.733L120.038 56.3473Z" fill="#4EA787"/>
<path fill-rule="evenodd" clip-rule="evenodd" d="M160 80C160 124.183 124.183 160 80 160C35.8172 160 0 124.183 0 80C0 35.8172 35.8172 0 80 0C124.183 0 160 35.8172 160 80ZM153.361 80C153.361 120.516 120.516 153.361 80 153.361C39.4839 153.361 6.63918 120.516 6.63918 80C6.63918 39.4839 39.4839 6.63918 80 6.63918C120.516 6.63918 153.361 39.4839 153.361 80Z" fill="#4EA787"/>
</svg>
